<svg width="25" height="25" viewBox="0 0 25 25" fill="none" xmlns="http://www.w3.org/2000/svg">
<g clip-path="url(#clip0_1325_1129)">
<path d="M20.7079 3.53231C18.4414 1.26576 15.4279 0.0175781 12.2226 0.0175781C9.03608 0.0175781 5.99057 1.27908 3.73734 3.53231C1.47084 5.7988 0.222656 8.8123 0.222656 12.0176C0.222656 14.5163 0.983295 16.9112 2.42231 18.9437C3.82949 20.9311 5.77508 22.4274 8.0487 23.271C8.20142 23.3277 8.378 23.2815 8.48309 23.1443C8.53517 23.0763 8.5595 22.9909 8.5595 22.9052V16.0597C8.5595 15.8504 8.38981 15.6807 8.18056 15.6807H5.02269V12.9018H8.18056C8.38986 12.9018 8.5595 12.7321 8.5595 12.5229V12.0176C8.5595 8.72037 11.6879 5.8281 15.2542 5.8281H16.8963V8.60703H15.2542C14.1848 8.60703 13.2124 8.91486 12.5161 9.4737C11.7457 10.0921 11.3384 10.9717 11.3384 12.0176V12.5228C11.3384 12.7321 11.5081 12.9018 11.7174 12.9018H13.2114C13.4207 12.9018 13.5903 12.7321 13.5903 12.5228C13.5903 12.3135 13.4206 12.1439 13.2114 12.1439H12.0963V12.0176C12.0963 10.0597 13.7974 9.36495 15.2542 9.36495H17.2752C17.4845 9.36495 17.6542 9.19526 17.6542 8.98601V5.44916C17.6542 5.23986 17.4845 5.07022 17.2752 5.07022H15.2542C13.4018 5.07022 11.5242 5.8071 10.1029 7.09189C8.61884 8.43341 7.80153 10.1827 7.80153 12.0176V12.1439H4.64366C4.43437 12.1439 4.26473 12.3136 4.26473 12.5229V16.0597C4.26473 16.269 4.43441 16.4387 4.64366 16.4387H7.80153V22.3565C3.69988 20.5992 0.98053 16.5122 0.98053 12.0176C0.98053 5.81863 6.02371 0.775452 12.2225 0.775452C18.4146 0.775452 23.4647 5.82547 23.4647 12.0176C23.4647 18.2165 18.4215 23.2596 12.2226 23.2596C12.1811 23.2596 12.1391 23.2594 12.0963 23.2588V16.4386H17.2752C17.4845 16.4386 17.6542 16.2689 17.6542 16.0597V12.5228C17.6542 12.3135 17.4845 12.1439 17.2752 12.1439H15.0573C14.848 12.1439 14.6783 12.3136 14.6783 12.5228C14.6783 12.7321 14.848 12.9018 15.0573 12.9018H16.8963V15.6807H11.7174C11.5081 15.6807 11.3384 15.8504 11.3384 16.0596V23.627C11.3384 23.8297 11.4982 23.9969 11.7007 24.0056C11.8885 24.0136 12.0592 24.0175 12.2227 24.0175C15.4279 24.0175 18.4414 22.7693 20.7079 20.5028C22.9612 18.2495 24.2227 15.2041 24.2227 12.0175C24.2226 8.8123 22.9744 5.7988 20.7079 3.53231Z" fill="#F9D880"/>
</g>
<defs>
<clipPath id="clip0_1325_1129">
<rect width="24" height="24" fill="white" transform="translate(0.220703 0.0175781)"/>
</clipPath>
</defs>
</svg>
