<svg width="25" height="25" viewBox="0 0 25 25" fill="none" xmlns="http://www.w3.org/2000/svg">
<g clip-path="url(#clip0_1325_1133)">
<path d="M20.706 3.53231C18.4395 1.26577 15.426 0.0175781 12.2207 0.0175781C9.01544 0.0175781 6.00194 1.26577 3.73544 3.53231C1.46889 5.79881 0.220703 8.81231 0.220703 12.0176C0.220703 15.2228 1.46889 18.2363 3.73544 20.5028C6.00194 22.7694 9.01544 24.0176 12.2207 24.0176C15.426 24.0176 18.4395 22.7694 20.706 20.5028C22.9725 18.2363 24.2207 15.2228 24.2207 12.0176C24.2207 8.81231 22.9725 5.79881 20.706 3.53231ZM12.2207 23.2597C6.02177 23.2597 0.978578 18.2165 0.978578 12.0176C0.978578 5.81864 6.02177 0.775453 12.2207 0.775453C18.4196 0.775453 23.4628 5.81864 23.4628 12.0176C23.4628 18.2165 18.4196 23.2597 12.2207 23.2597Z" fill="#F9D880"/>
<path d="M16.5254 4.56543H7.91495C6.17945 4.56543 4.76758 5.97735 4.76758 7.7128V16.3234C4.76758 18.0588 6.1795 19.4707 7.91495 19.4707H16.5255C18.2609 19.4707 19.6728 18.0588 19.6728 16.3233V7.7128C19.6728 5.9773 18.2609 4.56543 16.5254 4.56543ZM18.9149 16.3233C18.9149 17.6408 17.843 18.7128 16.5254 18.7128H7.91495C6.59739 18.7128 5.52545 17.6408 5.52545 16.3233V7.7128C5.52545 6.39524 6.59739 5.3233 7.91495 5.3233H16.5255C17.843 5.3233 18.915 6.39524 18.915 7.7128V16.3233H18.9149Z" fill="#F9D880"/>
<path d="M16.13 11.7942C16.0179 9.80048 14.3955 8.19656 12.4007 8.10661C10.0987 8.00283 8.20372 9.89873 8.30886 12.201C8.40003 14.196 10.0053 15.8176 11.9992 15.928C12.8407 15.9746 13.6287 15.7533 14.2869 15.3423C14.4919 15.2143 14.5253 14.9292 14.3544 14.7583C14.3526 14.7565 14.3508 14.7547 14.349 14.7529C14.2245 14.6283 14.0313 14.6095 13.8816 14.7025C13.3899 15.0081 12.8086 15.1826 12.1867 15.1761C10.431 15.1576 9.01442 13.6834 9.06388 11.9283C9.11361 10.162 10.6208 8.75386 12.4228 8.86678C13.9756 8.96409 15.2395 10.2023 15.3674 11.7528C15.4195 12.3845 15.2837 12.9812 15.0107 13.4946C14.9326 13.6416 14.9567 13.8218 15.0744 13.9396C15.0763 13.9415 15.0783 13.9434 15.0802 13.9454C15.257 14.1222 15.5562 14.0806 15.6743 13.8602C16.0016 13.2496 16.1721 12.5431 16.13 11.7942Z" fill="#F9D880"/>
<path d="M16.2625 8.48102C16.8206 8.48102 17.273 8.02859 17.273 7.47049C17.273 6.91239 16.8206 6.45996 16.2625 6.45996C15.7044 6.45996 15.252 6.91239 15.252 7.47049C15.252 8.02859 15.7044 8.48102 16.2625 8.48102Z" fill="#F9D880"/>
</g>
<defs>
<clipPath id="clip0_1325_1133">
<rect width="24" height="24" fill="white" transform="translate(0.220703 0.0175781)"/>
</clipPath>
</defs>
</svg>
