<svg width="54" height="51" viewBox="0 0 54 51" fill="none" xmlns="http://www.w3.org/2000/svg">
<path d="M38.1616 25.7176H29.1909L22.8848 13.5585C22.6587 13.1225 22.2764 12.8007 21.8083 12.6523C21.3401 12.5039 20.8423 12.5467 20.4063 12.7728C20.2548 12.8514 20.1191 12.9486 20 13.0597C19.8808 12.9486 19.7452 12.8514 19.5936 12.7728C19.1577 12.5467 18.6598 12.5039 18.1916 12.6523C17.7235 12.8007 17.3412 13.1225 17.1152 13.5585L10.4681 26.375C10.242 26.811 10.1992 27.3089 10.3477 27.777C10.3983 27.9368 10.4706 28.0857 10.5594 28.2226H1.83844C1.47086 28.2226 1.17188 27.9236 1.17188 27.5561C1.17188 27.1886 1.47094 26.8895 1.83844 26.8895H8.51852C8.84211 26.8895 9.10445 26.6272 9.10445 26.3036C9.10445 25.98 8.84211 25.7176 8.51852 25.7176H1.83844C0.824766 25.7176 0 26.5424 0 27.5561C0 28.3968 0.567344 29.1069 1.33914 29.325L4.73281 47.4243C4.95117 48.5893 5.97 49.4348 7.15531 49.4348H32.8448C34.0301 49.4348 35.0488 48.5893 35.2673 47.4243L38.6609 29.325C39.4327 29.1069 40 28.3968 40 27.5561C40 26.5423 39.1752 25.7176 38.1616 25.7176ZM20.9459 13.8132C21.1039 13.7312 21.2845 13.7157 21.4541 13.7695C21.6238 13.8232 21.7625 13.94 21.8445 14.098L28.4915 26.9147C28.5734 27.0727 28.589 27.2533 28.5352 27.4229C28.4814 27.5927 28.3647 27.7313 28.2066 27.8133C28.0486 27.8953 27.868 27.9108 27.6983 27.857C27.5285 27.8033 27.3899 27.6865 27.308 27.5285L20.661 14.7118C20.4918 14.3855 20.6196 13.9824 20.9459 13.8132ZM28.7484 29.3946L28.1939 35.1116H20.5859V29.3946H28.7484ZM20 15.9825L26.2678 28.0679C26.2955 28.1213 26.3256 28.1729 26.3579 28.2226H13.6421C13.6744 28.1729 13.7045 28.1213 13.7322 28.0679L14.3434 26.8896H23.2617C23.5853 26.8896 23.8477 26.6273 23.8477 26.3036C23.8477 25.98 23.5853 25.7177 23.2617 25.7177H14.9511L20 15.9825ZM11.5084 26.9146L18.1555 14.0979C18.2375 13.9399 18.3761 13.8232 18.5459 13.7694C18.6123 13.7483 18.6803 13.7379 18.748 13.7379C18.8534 13.7379 18.958 13.7632 19.0541 13.8131C19.3804 13.9824 19.5082 14.3854 19.339 14.7117L12.6919 27.5283C12.6099 27.6864 12.4713 27.8031 12.3016 27.8568C12.132 27.9106 11.9514 27.8951 11.7933 27.8131C11.6352 27.7311 11.5185 27.5925 11.4648 27.4228C11.4109 27.2532 11.4265 27.0727 11.5084 26.9146ZM2.54445 29.3946H10.0743L10.6287 35.1116H3.61641L2.54445 29.3946ZM3.83617 36.2834H10.7424L11.2969 42.0004H4.90805L3.83617 36.2834ZM7.15523 48.263C6.53352 48.263 5.99914 47.8195 5.88461 47.2084L5.12781 43.1722H11.4105L11.9042 48.263H7.15523ZM19.4141 48.263H13.0815L12.5878 43.1722H19.4141V48.263ZM19.4141 42.0004H12.4741L11.9197 36.2834H19.4141V42.0004ZM19.4141 35.1116H11.8061L11.2516 29.3946H19.4141V35.1116ZM26.9185 48.263H20.5859V43.1722H27.4122L26.9185 48.263ZM27.5259 42.0004H20.5859V36.2835H28.0803L27.5259 42.0004ZM34.1154 47.2084C34.0009 47.8195 33.4664 48.263 32.8447 48.263H28.0958L28.5895 43.1722H34.8722L34.1154 47.2084ZM35.092 42.0004H28.7032L29.2577 36.2835H36.1639L35.092 42.0004ZM36.3836 35.1115H29.3713L29.9258 29.3945H37.4555L36.3836 35.1115ZM38.1616 28.2227H38.152C38.1516 28.2227 38.1513 28.2227 38.1509 28.2227H29.4406C29.5294 28.0858 29.6016 27.9368 29.6523 27.7771C29.7448 27.4854 29.763 27.1822 29.7089 26.8896H38.1616C38.5291 26.8896 38.8281 27.1886 38.8281 27.5561C38.8281 27.9236 38.5291 28.2227 38.1616 28.2227Z" fill="#CD8235"/>
<circle cx="42" cy="12" r="12" fill="#292A2E"/>
<path d="M43.6953 6.5625V18H42.25V8.36719L39.3359 9.42969V8.125L43.4688 6.5625H43.6953Z" fill="white"/>
</svg>
