<svg width="84" height="84" viewBox="0 0 84 84" fill="none" xmlns="http://www.w3.org/2000/svg">
<rect width="84" height="84" rx="42" fill="#CD8235"/>
<path d="M26.8924 59.8035C26.2037 60.1232 25.5495 60.0528 24.9297 59.5925C24.3099 59.1337 24 58.4647 24 57.5856V48.6539C24 48.0945 24.1377 47.5949 24.4132 47.1554C24.6887 46.7158 25.0674 46.436 25.5495 46.3161L40.528 42.0002L25.5495 37.6843C25.0674 37.5644 24.6887 37.2846 24.4132 36.8451C24.1377 36.4055 24 35.9059 24 35.3465V26.4149C24 25.5357 24.3099 24.8659 24.9297 24.4055C25.5495 23.9468 26.2037 23.8772 26.8924 24.1969L58.7088 39.7823C59.5696 40.2219 60 40.9612 60 42.0002C60 43.0392 59.5696 43.7785 58.7088 44.2181L26.8924 59.8035Z" fill="white"/>
</svg>
