<svg width="25" height="25" viewBox="0 0 25 25" fill="none" xmlns="http://www.w3.org/2000/svg">
<g clip-path="url(#clip0_1325_1146)">
<path d="M20.706 3.53231C18.4395 1.26577 15.426 0.0175781 12.2207 0.0175781C9.01544 0.0175781 6.00194 1.26577 3.73544 3.53231C1.46889 5.79881 0.220703 8.81231 0.220703 12.0176C0.220703 15.2228 1.46889 18.2363 3.73544 20.5028C6.00194 22.7694 9.01544 24.0176 12.2207 24.0176C15.426 24.0176 18.4395 22.7694 20.706 20.5028C22.9725 18.2363 24.2207 15.2228 24.2207 12.0176C24.2207 8.81231 22.9725 5.79881 20.706 3.53231ZM12.2207 23.2597C6.02177 23.2597 0.978578 18.2165 0.978578 12.0176C0.978578 5.81864 6.02177 0.775453 12.2207 0.775453C18.4196 0.775453 23.4628 5.81864 23.4628 12.0176C23.4628 18.2165 18.4196 23.2597 12.2207 23.2597Z" fill="#F9D880"/>
<path d="M19.0174 4.64166C18.9011 4.554 18.7447 4.54088 18.6154 4.60782L3.96271 12.1868C3.83606 12.2522 3.75688 12.3833 3.75782 12.5259C3.75876 12.6685 3.83971 12.7985 3.96731 12.8623L7.79999 14.7786V18.5757C7.79999 18.6751 7.83379 18.7734 7.90218 18.8456C7.97784 18.9254 8.07838 18.9654 8.17898 18.9654C8.24235 18.9654 8.30573 18.9496 8.36306 18.9177L12.7479 16.4817L16.104 17.92C16.1754 17.9506 16.2545 17.9633 16.3309 17.949C16.4881 17.9196 16.605 17.7991 16.6349 17.6503L17.484 13.4045C17.5309 13.17 17.3515 12.9512 17.1124 12.9512C16.9317 12.9511 16.7762 13.0786 16.7408 13.2557L15.9832 17.0436L12.8756 15.7118C12.7679 15.6656 12.6449 15.672 12.5423 15.7288L8.55791 17.9424V14.5443C8.55791 14.4008 8.47682 14.2696 8.34843 14.2054L4.97273 12.5176L18.2632 5.64314L17.1098 11.4098C17.063 11.6444 17.2423 11.8631 17.4815 11.8631C17.6621 11.8631 17.8176 11.7356 17.8531 11.5585L19.161 5.01863C19.1896 4.87585 19.1338 4.72927 19.0174 4.64166Z" fill="#F9D880"/>
<path d="M16.5611 7.74076C16.442 7.59001 16.2288 7.55213 16.0651 7.65296L9.49673 11.6951C9.38466 11.764 9.31641 11.8862 9.31641 12.0178V16.0599C9.31636 16.2357 9.4372 16.3883 9.6082 16.4288C9.63731 16.4356 9.66651 16.439 9.69539 16.439C9.83634 16.439 9.969 16.3599 10.0342 16.2294L11.5225 13.2529L16.5317 8.24368C16.6676 8.10774 16.6802 7.8916 16.5611 7.74076ZM10.9431 12.7604C10.9144 12.7891 10.8904 12.8224 10.8722 12.8588L10.0743 14.4546V12.2296L13.7135 9.99001L10.9431 12.7604Z" fill="#F9D880"/>
</g>
<defs>
<clipPath id="clip0_1325_1146">
<rect width="24" height="24" fill="white" transform="translate(0.220703 0.0175781)"/>
</clipPath>
</defs>
</svg>
