<svg width="25" height="25" viewBox="0 0 25 25" fill="none" xmlns="http://www.w3.org/2000/svg">
<g clip-path="url(#clip0_1325_1156)">
<path d="M20.706 3.53236C18.4395 1.26577 15.426 0.0175781 12.2207 0.0175781C9.01544 0.0175781 6.00194 1.26577 3.73544 3.53236C1.46889 5.79881 0.220703 8.81231 0.220703 12.0176C0.220703 15.2228 1.46889 18.2363 3.73544 20.5028C6.00194 22.7694 9.01544 24.0176 12.2207 24.0176C15.426 24.0176 18.4395 22.7694 20.706 20.5028C22.9725 18.2363 24.2207 15.2228 24.2207 12.0176C24.2207 8.81231 22.9725 5.79881 20.706 3.53236ZM12.2207 23.2597C6.02177 23.2597 0.978578 18.2165 0.978578 12.0176C0.978578 5.81864 6.02177 0.775453 12.2207 0.775453C18.4196 0.775453 23.4628 5.81864 23.4628 12.0176C23.4628 18.2165 18.4196 23.2597 12.2207 23.2597Z" fill="#F9D880"/>
<path d="M19.3096 17.0149L18.8993 14.8581C18.8675 14.691 18.7341 14.5596 18.5625 14.5263L15.336 13.9001C15.1957 13.873 15.0508 13.9155 14.9496 14.0136L13.6248 15.2993C11.392 14.3321 10.1581 13.1322 9.07127 10.8725L10.392 9.59074C10.4931 9.49262 10.537 9.35188 10.509 9.21575L9.86376 6.08441C9.8294 5.91783 9.69403 5.78838 9.52191 5.75757L7.29957 5.35948C7.24248 5.34913 7.18379 5.35042 7.12718 5.3629C6.54561 5.49111 6.01494 5.77554 5.59258 6.18548C4.8614 6.89513 4.58209 7.93197 4.78505 9.18375C4.87746 9.75364 5.0148 10.3441 5.19327 10.9387C5.25943 11.1589 5.49723 11.285 5.72367 11.2212C5.95054 11.157 6.08083 10.9266 6.01478 10.7064C5.84639 10.1456 5.71706 9.58981 5.6303 9.05461C5.46938 8.06189 5.66023 7.29409 6.19768 6.77251C6.48585 6.49279 6.84295 6.29323 7.23479 6.19211L9.08173 6.52303L9.62531 9.16071L8.25644 10.4891C8.1311 10.6108 8.09605 10.7948 8.16829 10.9519C9.41269 13.6565 10.8725 15.0721 13.5545 16.175C13.7151 16.241 13.9007 16.2059 14.0239 16.0863L15.3927 14.7578L18.1106 15.2854L18.4516 17.0778C18.3474 17.458 18.1417 17.8046 17.8536 18.0843C17.316 18.6058 16.5247 18.791 15.5019 18.6348C13.457 18.3225 10.6204 17.359 8.79239 15.5919L8.76603 15.5664C7.9251 14.7471 7.17552 13.6169 6.59848 12.2981C6.50607 12.0871 6.25498 11.9887 6.03751 12.0783C5.82003 12.1679 5.7186 12.4116 5.81096 12.6227C6.43036 14.038 7.24264 15.2586 8.16152 16.1541L8.18798 16.1796C10.1617 18.0875 13.1915 19.1225 15.3689 19.455C15.6422 19.4967 15.9053 19.5174 16.1576 19.5174C17.0962 19.5174 17.882 19.2305 18.4584 18.6713C18.8808 18.2613 19.1739 17.7463 19.3059 17.182C19.3189 17.1272 19.3201 17.0703 19.3096 17.0149Z" fill="#F9D880"/>
<path d="M13.3614 8.06055C13.1251 8.06055 12.9336 8.24639 12.9336 8.47572C12.9336 8.70505 13.1251 8.89089 13.3614 8.89089C14.3836 8.89089 15.2151 9.69789 15.2151 10.6899C15.2151 10.9161 15.4098 11.1051 15.6429 11.1051C15.876 11.1051 16.0707 10.9161 16.0707 10.6899C16.0707 9.2401 14.8553 8.06055 13.3614 8.06055Z" fill="#F9D880"/>
<path d="M13.3607 6.28906C13.193 6.28906 13.0236 6.29807 12.8575 6.31583C12.6226 6.341 12.4533 6.54615 12.4792 6.77403C12.5051 7.00187 12.7163 7.16565 12.9513 7.14116C13.0865 7.12666 13.2241 7.1193 13.3607 7.1193C15.3892 7.1193 17.0396 8.72096 17.0396 10.6896C17.0396 10.8222 17.032 10.9558 17.0171 11.087C16.9912 11.3149 17.1606 11.52 17.3954 11.5452C17.6271 11.5695 17.8419 11.4034 17.8676 11.1781C17.8859 11.0168 17.8951 10.8524 17.8951 10.6896C17.8952 8.26318 15.8611 6.28906 13.3607 6.28906Z" fill="#F9D880"/>
<path d="M13.3606 4.51758C13.1982 4.51758 13.0339 4.52364 12.872 4.53549C12.6364 4.55284 12.4599 4.75219 12.4778 4.98085C12.4957 5.20952 12.7001 5.38044 12.9367 5.36341C13.0771 5.35305 13.2198 5.34787 13.3607 5.34787C16.3957 5.34787 18.8648 7.74415 18.8648 10.6896C18.8648 11.1063 18.8153 11.5211 18.7176 11.9226C18.6646 12.1401 18.8049 12.3644 19.0276 12.4201C19.2564 12.4774 19.4959 12.3365 19.5501 12.1136C19.6631 11.6496 19.7203 11.1706 19.7203 10.6896C19.7204 7.28636 16.8674 4.51758 13.3606 4.51758Z" fill="#F9D880"/>
</g>
<defs>
<clipPath id="clip0_1325_1156">
<rect width="24" height="24" fill="white" transform="translate(0.220703 0.0175781)"/>
</clipPath>
</defs>
</svg>
