<svg width="80" height="56" viewBox="0 0 80 56" fill="none" xmlns="http://www.w3.org/2000/svg">
<path d="M37.2398 2.85719C37.2398 4.4156 37.0259 5.71427 36.7587 5.71427C36.4914 5.71427 36.1707 6.12985 36.0638 6.59737C35.9034 7.16879 34.674 7.89605 33.0705 8.46746C29.4892 9.66225 25.3734 13.3505 23.5025 17.0387C22.2197 19.6361 22.0059 20.6231 22.0059 24.6749C22.0059 28.6229 22.2197 29.8177 23.3956 32.2072C25.1595 35.8435 28.4736 39.0643 32.3221 40.8824C34.9413 42.1291 36.0104 42.3369 39.9124 42.3369C43.8144 42.3369 44.8834 42.1291 47.5026 40.8824C51.4581 39.0123 54.6652 35.8955 56.3757 32.3111C57.6051 29.7657 57.8189 28.6229 57.8189 24.6749C57.8189 20.6231 57.6051 19.6361 56.3222 17.0387C54.4514 13.3505 50.3356 9.66225 46.7543 8.46746C45.1507 7.89605 43.9213 7.16879 43.7609 6.59737C43.654 6.12985 43.3333 5.71427 43.0661 5.71427C42.7988 5.71427 42.585 4.4156 42.585 2.85719V0.000102997H39.9124H37.2398V2.85719ZM46.3801 10.1817C49.6407 11.896 51.3512 13.818 53.222 17.6621C55.0928 21.4542 55.1463 28.0515 53.4358 31.7397C50.8701 37.35 45.4714 41.0382 39.9124 41.0382C30.0772 41.0382 22.6473 30.1813 25.6406 20.2075C28.6339 10.3376 37.9881 5.76622 46.3801 10.1817Z" fill="#CD8235"/>
<path d="M47.3953 29.3513C46.059 29.7149 43.3329 30.6499 41.2483 31.4291C37.3997 32.8837 32.5356 33.3512 29.5957 32.572C28.2059 32.2083 28.1525 32.2603 28.687 33.2473C29.6491 35.0135 32.6959 37.6628 34.8875 38.7017C37.4532 39.8446 42.1035 39.9485 44.7761 38.8576C48.7316 37.1953 54.0234 30.1824 52.1525 29.0396C51.1904 28.4682 50.2817 28.5201 47.3953 29.3513Z" fill="#F9D880"/>
<path d="M0.142985 47.8439C0.73096 48.7789 0.784412 54.2334 0.196437 54.9087C-0.177729 55.3762 -0.017372 55.584 0.677507 55.584C1.5862 55.584 1.6931 55.2204 1.53274 51.636L1.31893 47.74L2.86905 47.8958C4.90024 48.1036 5.2744 50.1815 3.45703 51.5321C2.8156 51.9996 2.54834 52.4672 2.9225 52.4672C4.1519 52.4672 6.23654 50.0257 5.86238 48.9867C5.32785 47.6361 4.63297 47.2725 2.06727 47.2725C0.517151 47.2725 -0.124277 47.4803 0.142985 47.8439Z" fill="#CD8235"/>
<path d="M11.8477 51.4282V55.584H14.6806C16.9256 55.584 17.4601 55.4281 17.4601 54.7009C17.4601 54.0256 17.2998 53.9736 16.8187 54.4412C16.4446 54.8048 15.4824 55.0645 14.6806 55.0645C13.2909 55.0645 13.184 54.9087 13.184 53.1944C13.184 51.4802 13.2909 51.3243 14.5203 51.5321C15.2686 51.688 16.0169 51.5841 16.1773 51.3763C16.3376 51.1165 15.6962 50.9088 14.841 50.9088C13.3443 50.9088 13.184 50.7529 13.184 49.3503C13.184 47.9997 13.3443 47.7919 14.7341 47.7919C15.5893 47.7919 16.4446 48.1036 16.5515 48.4153C16.7118 48.8309 16.8722 48.727 16.8722 48.1556C16.9256 47.4283 16.4446 47.2725 14.4134 47.2725H11.8477V51.4282Z" fill="#CD8235"/>
<path d="M23.6094 51.4282C23.6094 54.8567 23.7697 55.584 24.4112 55.584C25.0526 55.584 25.2129 55.1684 25.0526 53.7658C24.8922 52.3633 24.9991 51.9477 25.694 51.9477C26.1751 51.9477 26.9769 52.7788 27.4579 53.7658C27.9925 54.9087 28.7408 55.584 29.3822 55.584C30.2909 55.584 30.2909 55.532 29.5426 54.7528C27.7787 53.0905 27.5648 52.1035 28.527 50.4932C29.7564 48.3634 28.8477 47.2725 25.8009 47.2725H23.6094V51.4282ZM27.8321 48.6231C28.3132 49.7659 27.2441 51.4282 26.0147 51.4282C25.1595 51.4282 24.9457 51.0646 24.9457 49.6101C24.9457 48.0517 25.106 47.7919 26.2285 47.7919C26.9234 47.7919 27.6717 48.1556 27.8321 48.6231Z" fill="#CD8235"/>
<path d="M35.5298 47.74C36.0643 48.0517 36.2246 49.1945 36.0643 51.8957C35.9574 54.9606 36.0643 55.584 36.7057 55.584C37.3471 55.584 37.5075 55.1684 37.3471 53.7658C37.1333 52.1035 37.2402 51.9477 38.5231 51.9477C39.2714 51.9477 39.9128 51.688 39.9128 51.4282C39.9128 51.1165 39.3249 51.0126 38.5765 51.2204C37.3471 51.5321 37.2402 51.4282 37.2402 49.662C37.2402 48.0517 37.4006 47.7919 38.4696 47.7919C39.1645 47.7919 39.9663 48.0517 40.3405 48.4153C40.8215 48.8828 40.9819 48.8309 40.9819 48.1556C40.9819 47.4283 40.4474 47.2725 37.9351 47.2725C36.0108 47.2725 35.1021 47.4803 35.5298 47.74Z" fill="#CD8235"/>
<path d="M45.6313 47.6885C46.0055 47.8963 46.3262 49.5586 46.4331 51.4287C46.5934 54.5974 46.7003 54.8572 48.1436 55.5325C49.5333 56.1558 49.9075 56.1558 51.0834 55.5325C52.3128 54.8572 52.4732 54.3896 52.6335 51.6884C52.7404 49.9741 53.0612 48.3118 53.3819 47.9482C53.8095 47.4287 53.5957 47.2729 52.4197 47.3249C51.5645 47.3249 51.1903 47.4807 51.5645 47.6365C52.4197 47.9482 52.4197 53.6104 51.5645 54.4416C50.7093 55.2727 48.7315 55.2208 47.9297 54.2857C47.5556 53.8182 47.3418 52.3637 47.5021 50.3897C47.6625 47.3768 47.609 47.2729 46.3262 47.2729C45.5244 47.2729 45.2571 47.4287 45.6313 47.6885Z" fill="#CD8235"/>
<path d="M59.047 47.6361C59.7953 47.9478 59.9022 51.4802 59.2073 53.9217C58.7797 55.3242 58.8332 55.584 59.5815 55.584C60.3298 55.584 60.4902 55.1165 60.3833 52.623L60.2764 49.6101L61.7196 52.5711C62.5214 54.2334 63.3232 55.584 63.4835 55.584C63.6973 55.584 64.4991 54.1295 65.3009 52.3113C66.9045 48.8309 67.439 49.1426 67.0648 53.2983C66.9579 55.1165 67.0648 55.584 67.7063 55.584C68.4546 55.584 68.508 55.0645 68.1873 52.0516C67.9735 49.8698 68.027 48.3114 68.3477 47.8958C68.7753 47.4283 68.6149 47.2725 67.8666 47.2725C67.1183 47.2725 66.4768 48.0517 65.5682 50.2334C64.9267 51.8957 64.1784 53.4542 63.9646 53.6619C63.7508 53.9217 62.8955 52.5711 62.0403 50.701C60.8644 48.0517 60.2764 47.2725 59.4211 47.3244C58.8332 47.3244 58.6728 47.4803 59.047 47.6361Z" fill="#CD8235"/>
<path d="M74.5482 47.8958C74.9224 48.2595 75.1897 49.8179 75.1897 51.4282C75.1897 53.0386 74.9224 54.597 74.5482 54.9606C74.0672 55.4281 74.6017 55.584 76.9536 55.584C79.5193 55.584 80.0004 55.4281 80.0004 54.6489C80.0004 53.9736 79.8935 53.9217 79.5193 54.4412C79.252 54.8567 78.3968 55.0645 77.5416 54.9606C76.2053 54.8048 75.9914 54.597 75.9914 53.2464C75.9914 51.8957 76.2053 51.688 77.4881 51.688C78.2899 51.7399 78.9313 51.5321 78.9313 51.3243C78.9313 51.1165 78.2364 50.9088 77.3278 50.9088C75.8845 50.9088 75.7242 50.7529 75.7242 49.3503C75.7242 47.9997 75.938 47.7919 77.2209 47.7919C78.0226 47.7919 78.9848 48.0517 79.3589 48.4153C79.84 48.8828 80.0004 48.8309 80.0004 48.1556C80.0004 47.4283 79.4658 47.2725 76.9536 47.2725C74.6017 47.2725 74.0672 47.4283 74.5482 47.8958Z" fill="#CD8235"/>
</svg>
