<svg width="80" height="56" viewBox="0 0 80 56" fill="none" xmlns="http://www.w3.org/2000/svg">
<path d="M37.2395 2.85741C37.2395 4.41586 37.0257 5.71455 36.7584 5.71455C36.4912 5.71455 36.1704 6.13014 36.0635 6.59767C35.9032 7.1691 34.6738 7.89637 33.0703 8.4678C29.489 9.6626 25.3733 13.3509 23.5025 17.0392C22.2197 19.6366 22.0059 20.6236 22.0059 24.6756C22.0059 28.6236 22.2197 29.8184 23.3956 32.208C25.1595 35.8444 28.4735 39.0652 32.322 40.8833C34.9411 42.1301 36.0101 42.3379 39.912 42.3379C43.814 42.3379 44.883 42.1301 47.5021 40.8833C51.4575 39.0132 54.6646 35.8963 56.375 32.3119C57.6044 29.7665 57.8182 28.6236 57.8182 24.6756C57.8182 20.6236 57.6044 19.6366 56.3216 17.0392C54.4508 13.3509 50.335 9.6626 46.7538 8.4678C45.1503 7.89637 43.9209 7.1691 43.7605 6.59767C43.6536 6.13014 43.3329 5.71455 43.0657 5.71455C42.7984 5.71455 42.5846 4.41586 42.5846 2.85741V0.000274658H39.912H37.2395V2.85741ZM46.3796 10.1821C49.6402 11.8964 51.3506 13.8184 53.2214 17.6626C55.0922 21.4548 55.1457 28.0522 53.4352 31.7405C50.8695 37.3509 45.471 41.0392 39.912 41.0392C30.077 41.0392 22.6473 30.1821 25.6405 20.208C28.6338 10.3379 37.9878 5.7665 46.3796 10.1821Z" fill="#CD8235"/>
<path d="M47.3949 29.3511C46.0586 29.7147 43.3326 30.6498 41.248 31.429C37.3995 32.8835 32.5355 33.3511 29.5957 32.5718C28.2059 32.2082 28.1525 32.2602 28.687 33.2472C29.6491 35.0134 32.6958 37.6627 34.8873 38.7017C37.453 39.8446 42.1033 39.9485 44.7758 38.8576C48.7312 37.1952 54.0229 30.1822 52.1521 29.0394C51.19 28.468 50.2813 28.5199 47.3949 29.3511Z" fill="#F9D880"/>
<path d="M0.142982 47.8447C0.730946 48.7798 0.784398 54.2343 0.196433 54.9096C-0.177726 55.3772 -0.0173717 55.585 0.677495 55.585C1.58617 55.585 1.69307 55.2213 1.53272 51.6369L1.31891 47.7408L2.869 47.8967C4.90015 48.1045 5.27431 50.1824 3.45696 51.533C2.81555 52.0005 2.54829 52.4681 2.92245 52.4681C4.15183 52.4681 6.23643 50.0265 5.86227 48.9876C5.32776 47.6369 4.63289 47.2733 2.06723 47.2733C0.517141 47.2733 -0.124274 47.4811 0.142982 47.8447Z" fill="#CD8235"/>
<path d="M11.8496 51.4291V55.585H14.6825C16.9275 55.585 17.462 55.4291 17.462 54.7018C17.462 54.0265 17.3016 53.9746 16.8206 54.4421C16.4464 54.8057 15.4843 55.0655 14.6825 55.0655C13.2928 55.0655 13.1859 54.9096 13.1859 53.1954C13.1859 51.4811 13.2928 51.3252 14.5222 51.533C15.2705 51.6889 16.0188 51.585 16.1792 51.3772C16.3395 51.1174 15.6981 50.9096 14.8429 50.9096C13.3462 50.9096 13.1859 50.7538 13.1859 49.3512C13.1859 48.0006 13.3462 47.7928 14.736 47.7928C15.5912 47.7928 16.4464 48.1045 16.5533 48.4161C16.7137 48.8317 16.874 48.7278 16.874 48.1564C16.9275 47.4291 16.4464 47.2733 14.4153 47.2733H11.8496V51.4291Z" fill="#CD8235"/>
<path d="M23.6074 51.4291C23.6074 54.8577 23.7678 55.585 24.4092 55.585C25.0506 55.585 25.211 55.1694 25.0506 53.7668C24.8903 52.3642 24.9972 51.9486 25.692 51.9486C26.1731 51.9486 26.9749 52.7798 27.4559 53.7668C27.9904 54.9096 28.7387 55.585 29.3802 55.585C30.2888 55.585 30.2888 55.533 29.5405 54.7538C27.7766 53.0915 27.5628 52.1044 28.5249 50.4941C29.7543 48.3642 28.8456 47.2733 25.7989 47.2733H23.6074V51.4291ZM27.8301 48.6239C28.3111 49.7668 27.2421 51.4291 26.0127 51.4291C25.1575 51.4291 24.9437 51.0655 24.9437 49.6109C24.9437 48.0525 25.1041 47.7928 26.2265 47.7928C26.9214 47.7928 27.6697 48.1564 27.8301 48.6239Z" fill="#CD8235"/>
<path d="M35.5278 47.7408C36.0623 48.0525 36.2227 49.1954 36.0623 51.8967C35.9554 54.9616 36.0623 55.585 36.7037 55.585C37.3452 55.585 37.5055 55.1694 37.3452 53.7668C37.1313 52.1044 37.2382 51.9486 38.5211 51.9486C39.2694 51.9486 39.9108 51.6889 39.9108 51.4291C39.9108 51.1174 39.3228 51.0135 38.5745 51.2213C37.3452 51.533 37.2382 51.4291 37.2382 49.6629C37.2382 48.0525 37.3986 47.7928 38.4676 47.7928C39.1625 47.7928 39.9643 48.0525 40.3384 48.4161C40.8195 48.8837 40.9798 48.8317 40.9798 48.1564C40.9798 47.4291 40.4453 47.2733 37.9331 47.2733C36.0089 47.2733 35.1002 47.4811 35.5278 47.7408Z" fill="#CD8235"/>
<path d="M45.6293 47.6883C46.0035 47.8961 46.3242 49.5585 46.4311 51.4286C46.5915 54.5974 46.6984 54.8571 48.1415 55.5325C49.5313 56.1558 49.9054 56.1558 51.0814 55.5325C52.3107 54.8571 52.4711 54.3896 52.6315 51.6883C52.7384 49.974 53.0591 48.3117 53.3798 47.9481C53.8074 47.4286 53.5936 47.2727 52.4177 47.3247C51.5624 47.3247 51.1883 47.4805 51.5624 47.6364C52.4177 47.9481 52.4177 53.6104 51.5624 54.4416C50.7072 55.2727 48.7295 55.2208 47.9277 54.2857C47.5536 53.8182 47.3398 52.3636 47.5001 50.3896C47.6605 47.3766 47.607 47.2727 46.3242 47.2727C45.5224 47.2727 45.2552 47.4286 45.6293 47.6883Z" fill="#CD8235"/>
<path d="M59.045 47.6369C59.7933 47.9486 59.9002 51.4811 59.2054 53.9226C58.7778 55.3252 58.8312 55.585 59.5795 55.585C60.3279 55.585 60.4882 55.1174 60.3813 52.6239L60.2744 49.6109L61.7176 52.572C62.5194 54.2343 63.3211 55.585 63.4815 55.585C63.6953 55.585 64.4971 54.1304 65.2988 52.3122C66.9024 48.8317 67.4369 49.1434 67.0627 53.2992C66.9558 55.1174 67.0627 55.585 67.7041 55.585C68.4525 55.585 68.5059 55.0655 68.1852 52.0525C67.9714 49.8707 68.0248 48.3122 68.3455 47.8967C68.7732 47.4291 68.6128 47.2733 67.8645 47.2733C67.1162 47.2733 66.4748 48.0525 65.5661 50.2343C64.9247 51.8967 64.1763 53.4551 63.9625 53.6629C63.7487 53.9226 62.8935 52.572 62.0383 50.7018C60.8624 48.0525 60.2744 47.2733 59.4192 47.3252C58.8312 47.3252 58.6709 47.4811 59.045 47.6369Z" fill="#CD8235"/>
<path d="M74.5482 47.8967C74.9224 48.2603 75.1896 49.8187 75.1896 51.4291C75.1896 53.0395 74.9224 54.5979 74.5482 54.9616C74.0672 55.4291 74.6017 55.585 76.9535 55.585C79.5192 55.585 80.0003 55.4291 80.0003 54.6499C80.0003 53.9746 79.8934 53.9226 79.5192 54.4421C79.2519 54.8577 78.3967 55.0655 77.5415 54.9616C76.2052 54.8057 75.9914 54.5979 75.9914 53.2473C75.9914 51.8967 76.2052 51.6889 77.4881 51.6889C78.2898 51.7408 78.9312 51.533 78.9312 51.3252C78.9312 51.1174 78.2364 50.9096 77.3277 50.9096C75.8845 50.9096 75.7242 50.7538 75.7242 49.3512C75.7242 48.0006 75.938 47.7928 77.2208 47.7928C78.0226 47.7928 78.9847 48.0525 79.3588 48.4161C79.8399 48.8837 80.0003 48.8317 80.0003 48.1564C80.0003 47.4291 79.4658 47.2733 76.9535 47.2733C74.6017 47.2733 74.0672 47.4291 74.5482 47.8967Z" fill="#CD8235"/>
</svg>
